/* XPM */
static const char * latin1_8x8_xpm[] = {
"128 128 2 1",
".	c #FFFFFF",
"+	c #000000",
".........++++++..++++++..++.++.....+......+++......+............++++++++........++++++++....++++..++++....++++++.++++++++..++..+",
"........+......++++++++++++++++...+++....+++++.....+............++++++++..++++..++....++.....+++.++..++...++..++.++...++.+.++.+.",
"........+.+..+.+++.++.+++++++++..+++++....+++.....+++......++...+++..+++.++..++.+..++..+....++++.++..++...++++++.+++++++..++++..",
"........+......++++++++++++++++.+++++++.+++++++..+++++....++++..++....++.+....+.+.++++.+.+++++.+.++..++...++.....++...+++++..+++",
"........+.++++.+++....++.+++++...+++++..+++++++.+++++++...++++..++....++.+....+.+.++++.+++..++....++++....++.....++...+++++..+++",
"........+..++..++++..+++..+++.....+++....+++++...+++++.....++...+++..+++.++..++.+..++..+++..++.....++....+++.....++..+++..++++..",
"........+......+++++++++...+.......+......+++.....+++...........++++++++..++++..++....++++..++...++++++.++++....+++..++..+.++.+.",
".........++++++..++++++..................+++++...+++++..........++++++++........++++++++.++++......++...+++.....++......+..++..+",
"+.............+....++....++..++..+++++++..+++++............++......++......++...................................................",
"+++.........+++...++++...++..++.++.++.++.++...++..........++++....++++.....++......++.....++..............+..+.....++...++++++++",
"+++++.....+++++..++++++..++..++.++.++.++..+++............++++++..++++++....++.......++...++.....++.......++..++...++++..++++++++",
"+++++++.+++++++....++....++..++..++++.++.++.++.............++......++......++...+++++++.+++++++.++......++++++++.++++++..++++++.",
"+++++.....+++++....++....++..++....++.++.++.++...++++++..++++++....++....++++++.....++...++.....++.......++..++.++++++++..++++..",
"+++.........+++..++++++............++.++..+++....++++++...++++.....++.....++++.....++.....++....+++++++...+..+..++++++++...++...",
"+.............+...++++...++..++....++.++++..++...++++++....++......++......++...................................................",
"...................++....................++++...........++++++++................................................................",
"..........++.....++.++...++.++....++..............+++....++........++....++..................................................++.",
".........++++....++.++...++.++...+++++..++...++..++.++...++.......++......++.....++..++...++................................++..",
".........++++....++.++..+++++++.++......++..++....+++...++.......++........++.....++++....++...............................++...",
"..........++.............++.++...++++......++....+++.++..........++........++...++++++++++++++..........++++++............++....",
"..........++............+++++++.....++....++....++.+++...........++........++.....++++....++.............................++.....",
".........................++.++..+++++....++..++.++..++............++......++.....++..++...++......++..............++....++......",
"..........++.............++.++....++....++...++..+++.++............++....++.......................++..............++....+.......",
".................................................................................................++.............................",
".+++++....++.....++++....++++......+++..++++++....+++...++++++...++++....++++......................++............++......++++...",
"++...++..+++....++..++..++..++....++++..++.......++.....++..++..++..++..++..++....++......++......++..............++....++..++..",
"++..+++...++........++......++...++.++..+++++...++..........++..++..++..++..++....++......++.....++.....++++++.....++.......++..",
"++.++++...++......+++.....+++...++..++......++..+++++......++....++++....+++++..................++..................++.....++...",
"++++.++...++.....++.........++..+++++++.....++..++..++....++....++..++......++...................++................++.....++....",
"+++..++...++....++..++..++..++......++..++..++..++..++....++....++..++.....++.....++......++......++....++++++....++............",
".+++++..++++++..++++++...++++......++++..++++....++++.....++.....++++....+++......++......++.......++............++.......++....",
".........................................................................................++.....................................",
".+++++....++....++++++....++++..+++++...+++++++.+++++++...++++..++..++...++++......++++.+++..++.++++....++...++.++...++...+++...",
"++...++..++++....++..++..++..++..++.++...++...+..++...+..++..++.++..++....++........++...++..++..++.....+++.+++.+++..++..++.++..",
"++.++++.++..++...++..++.++.......++..++..++.+....++.+...++......++..++....++........++...++.++...++.....+++++++.++++.++.++...++.",
"++.++++.++..++...+++++..++.......++..++..++++....++++...++......++++++....++........++...++++....++.....+++++++.++.++++.++...++.",
"++.++++.++++++...++..++.++.......++..++..++.+....++.+...++..+++.++..++....++....++..++...++.++...++...+.++.+.++.++..+++.++...++.",
"++......++..++...++..++..++..++..++.++...++...+..++......++..++.++..++....++....++..++...++..++..++..++.++...++.++...++..++.++..",
".++++...++..++..++++++....++++..+++++...+++++++.++++......+++++.++..++...++++....++++...+++..++.+++++++.++...++.++...++...+++...",
"................................................................................................................................",
"++++++...++++...++++++...++++...++++++..++..++..++..++..++...++.++...++.++..++..+++++++..++++...++.......++++......+............",
".++..++.++..++...++..++.++..++..+.++.+..++..++..++..++..++...++.++...++.++..++..++...++..++......++........++.....+++...........",
".++..++.++..++...++..++.+++.......++....++..++..++..++..++...++..++.++..++..++..+...++...++.......++.......++....++.++..........",
".+++++..++..++...+++++...+++......++....++..++..++..++..++.+.++...+++....++++......++....++........++......++...++...++.........",
".++.....++.+++...++.++.....+++....++....++..++..++..++..+++++++...+++.....++......++..+..++.........++.....++...................",
".++......++++....++..++.++..++....++....++..++...++++...+++.+++..++.++....++.....++..++..++..........++....++...................",
"++++.......+++..+++..++..++++....++++...++++++....++....++...++.++...++..++++...+++++++..++++.........+..++++...................",
"........................................................................................................................++++++++",
"..++............+++................+++............+++...........+++.......++........++..+++......+++............................",
"..++.............++.................++...........++.++...........++......................++.......++............................",
"...++....++++....++......++++.......++...++++....++......+++.++..++.++...+++........++...++..++...++....++..++..+++++....++++...",
"............++...+++++..++..++...+++++..++..++..++++....++..++...+++.++...++........++...++.++....++....+++++++.++..++..++..++..",
".........+++++...++..++.++......++..++..++++++...++.....++..++...++..++...++........++...++++.....++....+++++++.++..++..++..++..",
"........++..++...++..++.++..++..++..++..++.......++......+++++...++..++...++....++..++...++.++....++....++.+.++.++..++..++..++..",
".........+++.++.++.+++...++++....+++.++..++++...++++........++..+++..++..++++...++..++..+++..++..++++...++...++.++..++...++++...",
"........................................................+++++....................++++...........................................",
"...................................+.......................................................+++.....++...+++......+++.++.........",
"..................................++......................................................++.......++.....++....++.+++.....+....",
"++.+++...+++.++.++.+++...+++++...+++++..++..++..++..++..++...++.++...++.++..++..++++++....++.......++.....++..............+++...",
".++..++.++..++...+++.++.++........++....++..++..++..++..++.+.++..++.++..++..++..+..++...+++................+++...........++.++..",
".++..++.++..++...++..++..++++.....++....++..++..++..++..+++++++...+++...++..++....++......++.......++.....++............++...++.",
".+++++...+++++...++.........++....++.+..++..++...++++...+++++++..++.++...+++++...++..+....++.......++.....++............++...++.",
".++.........++..++++....+++++......++....+++.++...++.....++.++..++...++.....++..++++++.....+++.....++...+++.............+++++++.",
"++++.......++++.........................................................+++++...................................................",
"..................................................................................++++++..........++.......................+++..",
"..++..++..+++++...++++....++++++..+++++....++++...++++++..++++++..++..++...+++........++..++++++..++......++++++..++.+++....++..",
"...++.++.....++.....++.......++......++......++.....++.....++.++..++.+++....++........++......++..++++++...++.++..++++++....++..",
"...++++......++.....++.......++...++.++......++......++....++.++..++.+.+....++........++......++......++...++.++...++.++....++..",
"..++++.......++.....++.......++...++.++......++......++....++.++..++...+..............++......++......++...++.++..++..++....++..",
"..++.++......++....++++......++...++.++......++......++....++.++..++...+..............++......++.....++....++.++..++..++....++..",
"..+++.++..++++++..++.++......++...++.++......++......++....++.++..++++++..............++..+++++.....++.....+++++..++.+++....++..",
"......................................................................................++...........++.......................++..",
"..........................++++++..........++.++...........++++++...........................++.....+++...++..++..+++++.......+++.",
".....+++..++++++..+++.++...++.++..++++++...++.++..++.++.......++..+++++...+.+.++..++++++...++....++.++..++..++..++..++.....++.++",
"......++...++.++...++.++...++.++...++.++...++++....++.++..++..++......++..+.+.++...++.++.++++++..++..+...++++...++..++.....++...",
"......++...++.++...++.++......++...++.++...+++......++++..++..++......++..+.+.++...++.++++......++++....++++++..+++++.+...++++..",
"......++...++.++...++.++......++......++...++........++...++..++......++..+++.++...++.++++.......++.......++....++...++....++...",
"......++...++++....++++.......++......++...++.........++..+++++.......++..+...++...++.++.++++++.+++..++.++++++..++..++++...++...",
"..++++++...+++....++++........++..+++++....++.....++++++..++..........++..+++++...+++.++...++...++++++....++....++...++.++.++...",
"..............................++...........++.............++...............................++.............++....++...+++.+++....",
"...+++....+++...........................++++++....++++....+++.....++....................++....++++....++...++...................",
"...................+++.....+++..+++++............++.++...++.++..........................++...++.++...++....++.....++..++++..++..",
".++++....+++............................++..++...++.++...++.++....++....................++..++..++..++...........++..++..++..++.",
"....++....++.....++++...++..++..+++++...+++.++....+++++...+++....++.....++++++..++++++..++.++++.++.++.++...++...++..++....++..++",
".+++++....++....++..++..++..++..++..++..++++++..................++......++..........++....++..++..++.+++...++....++..++..++..++.",
"++..++....++....++..++..++..++..++..++..++.+++...++++++..+++++..++..++..++..........++...++..++..++.++++...++.....++..++++..++..",
".++++++..++++....++++....++++++.++..++..++..++...................++++...................++..++..++..++++...++...................",
"............................................................................................++++......++........................",
"..+...+..+.+.+.+++.++.++...++......++......++.....++.++...................++.++...++.++...........++.++...++.++....++...........",
"+...+...+.+.+.+..+++.+++...++......++......++.....++.++...................++.++...++.++...........++.++...++.++....++...........",
"..+...+..+.+.+.+++.++.++...++......++...+++++.....++.++.........+++++...++++.++...++.++.+++++++.++++.++...++.++.+++++...........",
"+...+...+.+.+.+.+++.+++....++......++......++.....++.++............++........++...++.++......++......++...++.++....++...........",
"..+...+..+.+.+.+++.++.++...++...+++++...+++++...++++.++.+++++++.+++++...++++.++...++.++.++++.++.+++++++.+++++++.+++++...+++++...",
"+...+...+.+.+.+..+++.+++...++......++......++.....++.++...++.++....++.....++.++...++.++...++.++............................++...",
"..+...+..+.+.+.+++.++.++...++......++......++.....++.++...++.++....++.....++.++...++.++...++.++............................++...",
"+...+...+.+.+.+.+++.+++....++......++......++.....++.++...++.++....++.....++.++...++.++...++.++............................++...",
"...++......++..............++..............++......++.....++.++...++.++...........++.++...........++.++...........++.++....++...",
"...++......++..............++..............++......++.....++.++...++.++...........++.++...........++.++...........++.++....++...",
"...++......++..............++..............++......+++++..++.++...++.+++..++++++++++.+++++++++++..++.+++++++++++++++.+++++++++++",
"...++......++..............++..............++......++.....++.++...++......++......................++............................",
"...+++++++++++++++++++++...+++++++++++++++++++++...+++++..++.+++..++++++..++.+++++++++++++++.+++..++.+++++++++++++++.+++++++++++",
"...................++......++..............++......++.....++.++...........++.++...........++.++...++.++...........++.++.........",
"...................++......++..............++......++.....++.++...........++.++...........++.++...++.++...........++.++.........",
"...................++......++..............++......++.....++.++...........++.++...........++.++...++.++...........++.++.........",
"..++.++...................++.++....++.....................++.++....++......++...........++++++++........++++........++++++++++++",
"..++.++...................++.++....++.....................++.++....++......++...........++++++++........++++........++++++++++++",
"..++.++.++++++++..........++.++....+++++...+++++..........++.++.++++++++...++...........++++++++........++++........++++++++++++",
"..++.++...................++.++....++......++.............++.++....++......++...........++++++++........++++........++++++++++++",
"++++++++++++++++++++++++..++++++...+++++...+++++..+++++++++++++++++++++++++++......+++++++++++++++++++++++++........++++........",
"...........++.....++.++....................++.....++.++...++.++....++..............++...++++++++++++++++++++........++++........",
"...........++.....++.++....................++.....++.++...++.++....++..............++...++++++++++++++++++++........++++........",
"...........++.....++.++....................++.....++.++...++.++....++..............++...++++++++++++++++++++........++++........",
"................................++++++..........................++++++....+++.....+++......+++...............++...+++....++++...",
".........++++...++++++..+++++++.++..++...........++..++..+++.++...++.....++.++...++.++....++................++...++.....++..++..",
".+++.++.++..++..++..++...++.++...++......++++++..++..++.++.+++...++++...++...++.++...++....++....++++++..++++++.++......++..++..",
"++.+++..+++++...++.......++.++....++....++.++....++..++....++...++..++..+++++++.++...++..+++++..++.++.++++.++.+++++++...++..++..",
"++..+...++..++..++.......++.++...++.....++.++....++..++....++...++..++..++...++..++.++..++..++..++.++.++++.++.++++......++..++..",
"++.+++..+++++...++.......++.++..++..++..++.++....+++++.....++....++++....++.++...++.++..++..++...++++++..++++++..++.....++..++..",
".+++.++.++......++.......++.++..++++++...+++.....++........++.....++......+++...+++.+++..++++............++.......+++...++..++..",
"........++......................................++..............++++++..................................++......................",
"..........++.....++........++.......+++....++.....++..............+++.......................++++.++++....+++....................",
"++++++....++......++......++.......++.++...++.....++.....+++.++..++.++......................++...++.++.....++...................",
"........++++++.....++....++........++.++...++...........++.+++...++.++......................++...++.++....++......++++..........",
"++++++....++......++......++.......++......++...++++++............+++......++...............++...++.++...++.......++++..........",
"..........++.....++........++......++......++............+++.++............++......++...+++.++...++.++...++++.....++++..........",
"++++++.............................++...++.++.....++....++.+++...........................++.++....................++++..........",
"........++++++..++++++..++++++.....++...++.++.....++......................................++++..................................",
"...................................++....+++...............................................+++.................................."};
