/* XPM */
static const char * elektroline_xpm[] = {
"96 96 9 1",
" 	c None",
".	c #185C28",
"+	c #306B3C",
"@	c #457A4F",
"#	c #719A7A",
"$	c #96B49B",
"%	c #B6CCBD",
"&	c #D5E1D7",
"*	c #FDFFFC",
"................................................................................................",
"................................................................................................",
"................................................................................................",
"................................................................................................",
"................................................................................................",
"................................................................................................",
"................................................................................................",
"................................................................................................",
"................................................................................................",
"................................................................................................",
"................................................................................................",
"................................................................................................",
"................................................................................................",
"................................................................................................",
"................................................................................................",
"........................................................+##.....................................",
".....................................................@$%***&#...................................",
".................................................+#%*********&@.................................",
"..............................................@$&**************%@...............................",
"..........................................@$&*******************&@..............................",
"......................................+#%********************&$@................................",
"...................................@$&*******************&$#+...................................",
"...............................@$%********************%$@.......................................",
"...........................+#%********************&$#+..........................................",
"........................@$&********************%$@..............................................",
"....................@$%********************&$#..................................................",
"................+#%*********************%#+.........#%$+........................................",
".............@$&********************&$@.........+#%****&#.......................................",
".........@$&*********************%#+.........+#&*********%+..................+#&&@..............",
"........$********************&$@..........@$&**************#...............+$*****%+............",
".......#******************%#+..........#%*******************%+...........@%*********#...........",
".......%**************&$@..........+#%*********************&#+.........#&************&@.........",
".......&***********%#+..........@$&*********************&$+.........+$&****************$+.......",
".......&*******&$@...........@$&**********************%#..........@$********************&#......",
".......&******@..........+#%***********************&$+..........@%************************&@....",
".......&*****#........+#%************************$@...........#&**************************%@....",
".......&*****+.....@$&************************%#...........+$***************************&@......",
".......&*****+...+&************************&#+...........@%***************************&#........",
".......&*****+...&***********************$@............#&***************************&#..........",
".......&*****+..@*********************&#............+#&***************************&#............",
".......&*****+..#******************&$+............+$****************************&#..............",
".......&*****+..#****************%@.............@%*****************************$................",
".......#*****+..#*************&#+.............#&*****************************$..................",
"........$****+..#**********&$@.............+$&*****************************$+...................",
".........%***+..#********&#..............@$******************************$+.....................",
".........+&**+..#********@.............@%******************************$+.......................",
"..........+&*+..#*******%............#&******************************$+.........................",
"...........@*+..#*******$.........+$*******************************%+...........................",
"............#+..#*******$.......@%*******************************%@.............................",
"................#*******$......$*******************************%@...............................",
"................#*******$.....#******************************%@.................................",
"................#*******$.....&****************************&@...................................",
"................#*******$.....***************************&#.....................................",
"................+&******$....+*************************&#.......................................",
".................@******$....+***********************&#.........................................",
"..................#*****$....+*********************&#...........................................",
"...................#****$....+********************$.............................................",
"....................$***$....+******************$...............................................",
".....................%**$....+****************$+................................................",
"......................&*$....+**************$+..................................................",
"......................+&$....+************&@....................................................",
".......................@#....+************#.....................................................",
".............................+***********&......................................................",
".............................+***********&......................................................",
".............................+***********&......................................................",
".............................+***********&......................................................",
".............................+***********&......................................................",
".............................+***********&......................................................",
"..............................***********&......................................................",
"..............................@**********&......................................................",
"...............................#*********&......................................................",
"................................$********&......................................................",
".................................%*******&......................................................",
"..................................&******&......................................................",
"..................................+&*****&......................................................",
"...................................+*****&......................................................",
"....................................@****&......................................................",
".....................................#***&......................................................",
"......................................#**&......................................................",
".......................................$*&......................................................",
"........................................%&......................................................",
".........................................$......................................................",
"................................................................................................",
"................................................................................................",
"................................................................................................",
"................................................................................................",
"................................................................................................",
"................................................................................................",
"................................................................................................",
"................................................................................................",
"................................................................................................",
"................................................................................................",
"................................................................................................",
"................................................................................................",
"................................................................................................",
"................................................................................................"};
